<?xml version="1.0" encoding="UTF-8"?>
<!DOCTYPE svg PUBLIC "-//W3C//DTD SVG 1.1//EN" "http://www.w3.org/Graphics/SVG/1.1/DTD/svg11.dtd">
<!-- Creator: CorelDRAW (Not for commercial use) -->
<svg xmlns="http://www.w3.org/2000/svg" xml:space="preserve" width="215.9mm" height="279.4mm" version="1.1" style="shape-rendering:geometricPrecision; text-rendering:geometricPrecision; image-rendering:optimizeQuality; fill-rule:evenodd; clip-rule:evenodd"
viewBox="0 0 21590 27940"
 xmlns:xlink="http://www.w3.org/1999/xlink"
 xmlns:xodm="http://www.corel.com/coreldraw/odm/2003">
 <defs>
  <style type="text/css">
   <![CDATA[
    .fil3 {fill:#375C00}
    .fil2 {fill:#456F03}
    .fil1 {fill:#4A7804}
    .fil0 {fill:#538805}
   ]]>
  </style>
 </defs>
 <g id="Layer_x0020_1">
  <metadata id="CorelCorpID_0Corel-Layer"/>
  <g id="_2401465176512">
   <path class="fil0" d="M4900.93 16463.73l-128.29 -362.47c109.12,-81.47 261.58,-338.92 347.34,-462.07 584.52,-839.4 13.71,-1207.42 1320.4,-1314.7 54.52,-473.74 316.61,-1032.45 721.9,-1167.13 649.36,-215.74 891.05,361.46 1207.83,601.73 412.34,-525.33 408.24,-568.81 1112.09,-422.42 262.69,-413.84 722.58,-1611.58 1682.16,-257.91 772.48,-93.77 214.46,-395.74 1156.23,66.29 312.54,-249.7 928.41,-1273.19 1662.52,344.22 954.36,-264.61 1000.41,146.31 1324.42,883.67 752.17,120.02 663.45,79.4 936.47,754.22 23.9,14.23 63.97,-2.03 77.49,30.86 20.73,50.42 324.5,47.74 533.39,252.12 390.3,381.89 -66.04,253.36 428.34,499.36 282.14,-398.19 56.84,-554.5 13.14,-817.17 -66.21,-397.78 14.48,54.74 17.75,-365.88 6.34,-811.21 -148.14,2.35 -134.4,-632.48 7.21,-334.17 151.67,-228.82 19.69,-773.36 -293.94,-174.42 -291.1,-63.25 -518.75,-216.89 233.5,-804.03 27.23,-825.39 -698.63,-803.97 -115.15,-254.7 -188.16,-148.59 -255.29,-468.36 -61.57,-293.37 63.39,-267.12 -80.71,-706.12 -570.95,-174.99 -481.61,52.33 -803.68,3.58l-642.67 -277.55c-10.89,-1159.32 -626.41,-795.1 -1300.95,-649.83 -247.65,-377.24 -407.24,-548.08 -930.66,-249.47 -982.87,560.73 114.5,75.11 -1099.63,454.87l-1185.4 36.81c-691.89,-197.88 -692.82,-266.05 -1023.85,278.16 -585.14,-197.99 -920.52,-377.03 -1002.24,505.61 -343.15,59.21 -359.89,147.68 -477.48,162.92 -331.33,42.91 -1094.74,-593.51 -945.15,761.89 -363.62,79.94 -306.12,128.26 -465.74,444.76 -1090.05,-16.01 -1080.3,140.49 -1057.44,1186.13 -812.49,84.18 -502.03,615.36 -401.6,1176.42 136.29,761.53 -298.97,1052.3 591.4,1504.16z"/>
   <path class="fil1" d="M5520.07 13576.82c-119.56,417.56 -12.78,527.87 -71.95,738.84 -136.89,488.23 -225.38,239.28 -21.14,816.26 312.87,179.33 396.24,25.64 576.44,316.55 240.73,388.6 -365.05,592.33 442.96,1049.6 354.91,200.88 1504.17,95.01 1956.19,95.01l6930.61 3.76c709.69,-58.03 338.08,-521.68 225.41,-828.29l101.15 -11.98c445.5,-38.8 263.53,73.96 469.54,-330.43l57.44 -107.95c523.49,-852.79 -4.39,-295.55 278.69,-966.21 120.78,-286.11 119.33,-369.7 -47.65,-625.63l-329.94 -211.39c-285.77,-170.41 -174.13,-183.66 -376.97,-270.54 -97.06,-41.55 -170.86,-25.67 -332.37,-77.69 -88.26,-934.28 -836.28,-375.47 -877.58,-364.84 -210.59,-196.88 -96.78,-290.86 -425.81,-338.73 -364.86,-53.1 -279.39,155.91 -533.57,222.84 -500.12,-707.94 -119.05,-511.11 -546,-763.51 -157.31,-92.98 -257.41,-125.64 -415.91,-254.07 -185.53,-150.37 -112.48,-147.92 -303.78,-348.56 -515.26,-52.82 -96.1,77.3 -398.34,27.38 -203.05,-33.55 -78.79,-68.1 -343.35,-203.75 -568.57,187.77 66.74,121.15 -558.43,90.85l-540.23 57.93c-832,344.99 -463.77,46.47 -1126.41,88.96 -467.51,697.7 -147.59,-138.58 -661.61,674.95 -381.62,603.93 -413.92,-39.48 -739.36,632.34 -22.35,-3.53 -53.61,-40.25 -64.96,-19.86 -111.08,199.71 17.54,-90.43 -335.97,-36.63 -235.73,35.88 -83.35,49.46 -340.76,157.29 -597.23,-396.64 -463,-224.52 -807.07,118.81 -152.19,151.89 4.23,45.41 -205.88,117.71 -234.84,80.8 -53.61,-126.47 -295.86,106.64 -279.45,268.9 164.51,259.18 -337.53,444.34z"/>
   <path class="fil2" d="M4900.93 16463.73c13.93,473.93 183.16,103.16 -94.91,485.07 -280.37,385.11 -546.72,1116.87 177.67,1191.52l11653.07 -57.71c260.81,-418.51 300.85,-599.49 104.09,-1124.74 417.14,-405.7 318.16,-383.25 542.37,-1048.37 -494.38,-246 -38.04,-117.47 -428.34,-499.36 -208.89,-204.38 -512.66,-201.7 -533.39,-252.12 -13.52,-32.89 -53.59,-16.63 -77.49,-30.86 -273.02,-674.82 -184.3,-634.2 -936.47,-754.22 -324.01,-737.36 -370.06,-1148.28 -1324.42,-883.67 -734.11,-1617.41 -1349.98,-593.92 -1662.52,-344.22 -941.77,-462.03 -383.75,-160.06 -1156.23,-66.29 -959.58,-1353.67 -1419.47,-155.93 -1682.16,257.91 -703.85,-146.39 -699.75,-102.91 -1112.09,422.42 -316.78,-240.27 -558.47,-817.47 -1207.83,-601.73 -405.29,134.68 -667.38,693.39 -721.9,1167.13 -1306.69,107.28 -735.88,475.3 -1320.4,1314.7 -85.76,123.15 -238.22,380.6 -347.34,462.07l128.29 362.47z"/>
   <path class="fil3" d="M6627.28 17372.16c-85.36,776.63 676.78,670.86 1329.45,662.44l6336.42 -0.96c104.22,-25.1 376.38,-364.49 464.79,-605.88l-35.78 -93.63c-215.89,-573.98 120.09,-203.28 175.25,-769.45 59.36,-609.12 -180.51,-599.99 -621.76,-711.31 -106.45,-571.79 -93.11,-424.15 -600.1,-505.29 -145.01,-594.21 -267.17,-636.42 -855.97,-639.51 -353.78,-565.01 -246.66,-778.09 -1105.2,-213.93 -643.59,-247.33 -260.75,-93.8 -736.8,-15.56 -442.06,-614.32 -868.69,-508.66 -1032.22,103.24 -474.83,39.53 -601.06,-13.56 -803.17,356.66 -209.94,-195.7 -372.79,-518.36 -782.39,-406.81 -311.84,84.94 -428.45,451.21 -503.49,777.78 -784.56,-26.26 -530.28,436.13 -823.2,841.18 -251.67,347.99 -231.14,93.34 -172.39,672.18 21.07,207.52 48.14,92.92 -37.07,254.4l-196.37 294.45z"/>
   <path class="fil2" d="M8593.26 16855.51c-47.48,165.82 -5.07,209.63 -28.57,293.41 -54.36,193.89 -89.51,95.02 -8.4,324.15 124.25,71.22 157.36,10.19 228.92,125.71 95.6,154.33 -144.97,235.23 175.91,416.82 140.94,79.78 597.34,37.73 776.85,37.73l2752.3 1.5c281.83,-23.05 134.25,-207.17 89.51,-328.93l40.17 -4.76c176.92,-15.41 104.65,29.37 186.46,-131.22l22.82 -42.87c207.88,-338.67 -1.75,-117.37 110.67,-383.71 47.96,-113.62 47.39,-146.81 -18.93,-248.45l-131.02 -83.95c-113.49,-67.67 -69.15,-72.93 -149.7,-107.43 -38.55,-16.51 -67.86,-10.2 -132,-30.86 -35.04,-371.02 -332.1,-149.1 -348.5,-144.88 -83.63,-78.19 -38.44,-115.51 -169.1,-134.52 -144.9,-21.09 -110.95,61.92 -211.9,88.49 -198.6,-281.13 -47.27,-202.97 -216.82,-303.2 -62.47,-36.92 -102.23,-49.89 -165.17,-100.9 -73.68,-59.71 -44.67,-58.74 -120.64,-138.42 -204.62,-20.97 -38.16,30.7 -158.19,10.87 -80.63,-13.32 -31.29,-27.04 -136.35,-80.91 -225.79,74.57 26.51,48.11 -221.76,36.08l-214.54 23c-330.41,137.01 -184.18,18.46 -447.32,35.33 -185.66,277.07 -58.62,-55.03 -262.74,268.04 -151.55,239.83 -164.38,-15.68 -293.62,251.12 -8.88,-1.41 -21.29,-15.99 -25.8,-7.89 -44.11,79.31 6.97,-35.91 -133.42,-14.55 -93.61,14.25 -33.1,19.64 -135.32,62.47 -237.17,-157.52 -183.87,-89.17 -320.51,47.18 -60.44,60.32 1.68,18.03 -81.76,46.74 -93.26,32.09 -21.29,-50.22 -117.49,42.35 -110.98,106.79 65.33,102.93 -134.04,176.46z"/>
  </g>
 </g>
</svg>
