<?xml version="1.0" encoding="UTF-8"?>
<!DOCTYPE svg PUBLIC "-//W3C//DTD SVG 1.1//EN" "http://www.w3.org/Graphics/SVG/1.1/DTD/svg11.dtd">
<!-- Creator: CorelDRAW (Not for commercial use) -->
<svg xmlns="http://www.w3.org/2000/svg" xml:space="preserve" width="215.9mm" height="279.4mm" version="1.1" style="shape-rendering:geometricPrecision; text-rendering:geometricPrecision; image-rendering:optimizeQuality; fill-rule:evenodd; clip-rule:evenodd"
viewBox="0 0 21590 27940"
 xmlns:xlink="http://www.w3.org/1999/xlink"
 xmlns:xodm="http://www.corel.com/coreldraw/odm/2003">
 <defs>
  <style type="text/css">
   <![CDATA[
    .fil2 {fill:#375C00}
    .fil1 {fill:#456F03}
    .fil0 {fill:#538805}
   ]]>
  </style>
 </defs>
 <g id="Layer_x0020_1">
  <metadata id="CorelCorpID_0Corel-Layer"/>
  <g id="_2401473141168">
   <path class="fil0" d="M4797.46 15081.17c570.48,-289.18 236.12,-138.54 897.25,-215.68 144.51,-328.98 -84.97,-316.22 299.21,-537.02 650.23,-373.77 498.87,316.99 1439.71,-81.59 578.21,-244.94 -3.36,-138.13 477.2,-455.7 869.8,-44.94 170.43,266.95 1252.59,278.29 287.77,-393.93 217.3,-552.46 929.73,-553.42 303.36,-1146.65 1283.47,-421.82 1286.4,-421.82 207.19,-75.23 95.89,-51.75 229.04,-105.02 932.89,-373.17 266.54,-425.81 734.49,-567.08 685.52,-206.98 425.4,670.9 1449.13,94.21 643.14,-362.31 693.36,78.58 863.33,183.29 657.47,-202.29 660.45,-281.23 1069.18,310.58 425.32,-252.54 -16.66,142.08 131.29,-130.26 80.71,-148.56 15.52,-80.36 -13.65,-92.13 205.64,241.2 -16.31,65.5 294.48,169.48 4.76,-1069.47 248.17,-390 -810.12,-1178.85 -207.22,-154.46 103.33,111.29 -103.38,-83.27 -363.2,-341.89 -70.74,-364.96 -836.53,-793.23 -321.47,-179.77 -1247.64,-304.95 -1503.73,-263.81 -4.56,0.74 -307.62,245.27 -957.61,-192.51l-337.39 -300.71c-63.39,-32.73 -960.15,-231.55 -1150.96,-273.5 -587.99,-129.25 -171.88,68.37 -742.77,54.35 -841.64,-20.66 -185.18,130.53 -775.46,271.16 -335.34,79.91 -235.68,-70.41 -719.01,-34.12 -289.46,276.22 -58.17,268.01 -429.84,461.5 -471.67,245.56 -365.26,-74.36 -842.22,185.67 -299.1,232.56 -7.29,33.79 -195.2,265 -133.23,163.95 -42.66,78.77 -251.52,202.72 -532.98,316.31 -178.41,133.44 -342.37,630.07 -196.27,594.48 -750.63,-74.48 -882.53,999.9 -964.03,194.56 -519.65,317.3 -671.83,947.06 -99.86,413.17 -351.41,348.54 32.55,905.21 226.42,328.31 62.88,-131.53 180.54,321.23z"/>
   <path class="fil1" d="M4663.95 15014.42c-29.17,239.23 13.99,587.14 -76.91,778.41 -107.8,226.83 -361.48,186.46 -318.85,760.36 45.56,613.71 200.75,202.76 206.68,743.56 5.98,549.36 -76.45,303.66 133.28,794.69l11840.96 21.22c731.57,-1669.14 253.16,-1344.5 480.68,-2323.17 123.97,-533.19 258.98,-239.2 364.4,-708.73 101.66,-452.76 -58.99,-449.71 -164.58,-735.04 -177.04,-478.41 349.9,-861.74 -608.31,-1308.36l-517.96 -431.76c-417.2,-158.31 -80.11,-163.63 -412.12,60.01 -408.74,-671.21 -411.71,-581.68 -1069.18,-352.26 -169.97,-118.75 -220.2,-618.79 -863.33,-207.87 -1023.74,654.05 -763.61,-341.6 -1449.13,-106.85 -467.95,160.22 198.4,219.92 -734.49,643.16 -133.15,60.41 -21.85,33.78 -229.05,119.11 -2.92,0 -983.04,-822.09 -1286.4,478.41 -712.42,1.09 -641.96,180.89 -929.72,627.67 -1082.16,-12.86 -382.79,-366.59 -1252.59,-315.62 -480.57,360.17 101,239.04 -477.21,516.83 -940.84,452.06 -789.47,-331.38 -1439.71,92.54 -384.18,250.43 -154.69,235.95 -299.21,609.07 -661.13,87.49 -326.77,-83.36 -897.25,244.62z"/>
   <path class="fil2" d="M6377.68 16596.45c-563.88,412.78 104.76,1090.49 199.73,1247.15l118.5 195.68 9041.6 -0.89c531.14,-45.93 -407.14,64.67 149.21,-19.71 315.92,-47.9 463.31,-342.82 503.4,-579.31 97.69,-576.35 -75.44,-182.98 253.25,-603.52 146.82,-187.88 204.06,-436.7 126.12,-709.1 -133.2,-465.5 -203.47,-92.47 -12.34,-593.84 335.38,-879.73 -973.81,-2050.8 -1951.07,-1391.79 -60.29,-424.18 -311.52,-755.17 -833.2,-742.13 -545.92,-135.02 -611.27,68.95 -945.49,45.83 -311.86,-21.56 -920.01,-369.59 -1732.37,175.7 -312.81,209.97 -205.44,311.77 -506.6,479.25 -994.95,553.32 -427.96,531.31 -773.11,1156.63 -131.47,238.2 -475.9,340.63 -260.52,976.26 187.85,554.4 -313.15,609.26 -798.98,494.8 -101,-23.8 -246.01,-97.07 -307.69,-133.47 -763.84,-450.62 -240.23,41.75 -1150.21,105.98 -495.44,34.96 -574.83,-36.47 -882,-194.43l-175.37 45.63c-14.65,7.56 -41.89,30.22 -62.86,45.28z"/>
   <path class="fil1" d="M14350.23 15260.82c344.88,-19.16 380.12,186.81 500.14,293.4 93.42,82.95 783.27,114.27 800.45,845.44 6.95,295.31 -98.46,422.49 -293.13,534.09 109.61,219.18 287.29,239.75 155.96,640.64 -40.61,123.98 -78.95,162.63 -168.79,242.92 -248.16,221.78 -70.77,193.58 -226.96,220.75l-4560.5 1.19c-339.68,5.34 -431.18,39.53 -422.52,-365.52 7.3,-340.98 155.96,-361.25 258.48,-550.26 96.19,-62.26 38.03,-3.5 111.92,-204.06 2.96,-8 6.97,-19.35 10.19,-27.33 260.62,-648.33 704.65,-375.29 1002.54,-427.24 339.76,-59.27 295.62,30.36 534.3,73.76 64.75,-337.15 125.26,-399.26 348.27,-549.58 20.18,-538.86 310.53,-693.55 788.11,-763.2 424.46,-61.91 360.18,-271.28 880.44,-0.34 146.2,76.13 56.8,8.64 281.1,35.34z"/>
  </g>
 </g>
</svg>
