<?xml version="1.0" encoding="UTF-8"?>
<!DOCTYPE svg PUBLIC "-//W3C//DTD SVG 1.1//EN" "http://www.w3.org/Graphics/SVG/1.1/DTD/svg11.dtd">
<!-- Creator: CorelDRAW (Not for commercial use) -->
<svg xmlns="http://www.w3.org/2000/svg" xml:space="preserve" width="215.9mm" height="279.4mm" version="1.1" style="shape-rendering:geometricPrecision; text-rendering:geometricPrecision; image-rendering:optimizeQuality; fill-rule:evenodd; clip-rule:evenodd"
viewBox="0 0 21590 27940"
 xmlns:xlink="http://www.w3.org/1999/xlink"
 xmlns:xodm="http://www.corel.com/coreldraw/odm/2003">
 <defs>
  <style type="text/css">
   <![CDATA[
    .fil3 {fill:#375C00}
    .fil2 {fill:#456F03}
    .fil1 {fill:#4A7804}
    .fil0 {fill:#538805}
   ]]>
  </style>
 </defs>
 <g id="Layer_x0020_1">
  <metadata id="CorelCorpID_0Corel-Layer"/>
  <g id="_2401473161088">
   <path class="fil0" d="M7307.98 12269.99c-349.03,44.42 -408.98,184.09 -627.1,254.07 -870.62,279.3 -538.94,-342.7 -1474.62,631.47 -357.36,372.05 -1334.08,182.36 -1603.66,1565.97 -60.17,308.93 -52.36,634.2 56.86,902.63 36.14,88.79 140.56,244.45 184.83,296.92l308.61 299.89c-473.42,521.75 -565.41,1379.29 -5.28,1734.85 202.34,461.88 2246.39,197.33 2770.58,197.14 963.53,-0.33 1927.07,0.96 2890.58,0.16 1974.85,-1.58 3949.72,0.88 5924.51,-0.54l1783.76 2.65c487.15,-255.16 565.13,-1136.76 475.46,-1736.73 -47.63,-318.69 -206.4,-506.93 -250.43,-793.11 -68.74,-446.97 19.78,-2097.29 -1595.39,-2369.4 -1052.98,-177.4 -387.95,-460.28 -1188.59,-541.94 -245.21,-268.73 -214,-35.29 -492.37,-285.99 -41.57,-37.45 -236.25,-317.02 -335.04,-426.49 -562.67,-623.63 -108.3,-387.65 -494.96,-1151.83 -624.59,-1234.4 -1689.1,-840.31 -2188.92,-707.78 -970.37,-885.32 -2221.67,-306.51 -2450.96,842.1 -969.71,114.14 -1423.46,411 -1687.87,1285.96z"/>
   <path class="fil1" d="M4599.01 16243.51c14.36,531.23 188.83,115.63 -97.86,543.72 -289.06,431.67 -563.67,1251.9 183.18,1335.58l12014.38 -64.69c268.9,-469.12 310.18,-671.97 107.32,-1260.73 430.08,-454.75 328.03,-429.59 559.19,-1175.12 -509.71,-275.75 -39.23,-131.68 -441.63,-559.73 -215.36,-229.09 -528.55,-226.09 -549.92,-282.61 -13.94,-36.86 -55.25,-18.64 -79.89,-34.59 -281.48,-756.41 -190.02,-710.88 -965.51,-845.41 -334.05,-826.51 -381.53,-1287.11 -1365.48,-990.51 -756.87,-1812.96 -1391.84,-665.72 -1714.07,-385.84 -970.97,-517.88 -395.65,-179.4 -1192.08,-74.3 -989.33,-1517.34 -1463.48,-174.78 -1734.32,289.09 -725.67,-164.09 -721.45,-115.35 -1146.57,473.49 -326.6,-269.32 -575.78,-916.3 -1245.27,-674.47 -417.86,150.96 -688.08,777.22 -744.29,1308.23 -1347.21,120.26 -758.7,532.76 -1361.34,1473.65 -88.43,138.05 -245.61,426.62 -358.11,517.95l132.27 406.29z"/>
   <path class="fil2" d="M7249.76 13899.79c-584.66,-29.17 -644.4,284.56 -847.87,446.9 -158.36,126.34 -1327.83,174.05 -1356.96,1287.74 -11.78,449.81 166.91,643.53 496.94,813.51 -185.82,333.84 -487.03,365.18 -264.4,975.79 68.85,188.84 133.85,247.72 286.15,370.02 420.68,337.79 119.97,294.84 384.74,336.23l7731.19 1.81c575.83,8.14 730.96,60.21 716.27,-556.75 -12.38,-519.36 -264.4,-550.24 -438.19,-838.13 -163.06,-94.82 -64.47,-5.33 -189.73,-310.82 -5.01,-12.18 -11.82,-29.47 -17.27,-41.62 -441.83,-987.51 -1194.55,-571.63 -1699.56,-650.76 -575.97,-90.27 -501.14,46.25 -905.76,112.35 -109.77,-513.53 -212.35,-608.14 -590.42,-837.1 -34.21,-820.76 -526.43,-1056.39 -1336.04,-1162.48 -719.57,-94.29 -610.59,-413.2 -1492.57,-0.51 -247.83,115.97 -96.28,13.16 -476.52,53.82z"/>
   <path class="fil3" d="M5892.78 17609.67c105.55,636.65 613.18,549.95 1065.34,543.05l4406.97 -0.79c67.15,-20.58 184.38,-298.8 194.6,-496.68l-44.76 -76.76c-272.05,-470.52 40.36,-166.64 -41.51,-630.75 -88.06,-499.34 -252.96,-491.86 -583.5,-583.11 -195.46,-468.73 -154.83,-347.7 -524.69,-414.21 -227.04,-487.12 -320.97,-521.72 -731.15,-524.25 -366.05,-463.18 -336.79,-637.85 -814.13,-175.37 -500.15,-202.75 -201.28,-76.89 -515.77,-12.76 -437.92,-503.6 -712.22,-416.98 -696.02,84.63 -321.86,32.41 -420.93,-11.11 -482.89,292.38 -187.58,-160.43 -369.36,-424.93 -630.56,-333.49 -198.86,69.64 -202.18,369.89 -185.03,637.59 -551.26,-21.52 -276.21,357.53 -393.93,689.57 -101.14,285.27 -140.94,76.52 22.84,551.03 58.73,170.11 53.22,76.17 28.24,208.55l-74.05 241.37z"/>
   <path class="fil2" d="M9697.19 16462.44c-96.78,28.91 -88.64,43.61 -189.24,51.28 -343.13,26.18 -173.09,-0.93 -465.94,203.17 -498.84,-131.32 -281.49,-18.01 -575.84,56.98 -136.54,-203.1 -105.16,-292.35 -361.01,-426.42 -128.86,-67.52 -190.28,-64.86 -352.29,-56.57 -178.54,9.13 -199.47,-36.62 -352.31,-20.23 -216.98,-13.7 -409.34,151.64 -477.82,310.47 -78.46,181.99 -46.85,87.39 -175.52,206.73 -158.46,146.98 -202.61,405.01 -93.34,599.61 129.18,230.09 -110.65,267.19 137.82,628.19 91.01,132.22 109.74,122.41 302.61,121.11 569.66,-3.87 2872.47,29.04 3206.56,-9.3 2.53,-207.03 -35.02,-212.23 -86.23,-366.6 113.42,-46.36 232.69,-164.6 259.43,-324.4 12.25,-73.21 8.16,-476.26 -14.23,-538.03 -84.28,-232.45 -186.77,-177.84 -319.18,-284.47 -128.23,-103.27 -170.45,-238.49 -443.47,-151.52z"/>
  </g>
 </g>
</svg>
